<?xml version="1.0" standalone="no"?><!DOCTYPE svg PUBLIC "-//W3C//DTD SVG 1.1//EN" "http://www.w3.org/Graphics/SVG/1.1/DTD/svg11.dtd"><svg t="1677209790415" class="icon" viewBox="0 0 1024 1024" version="1.1" xmlns="http://www.w3.org/2000/svg" p-id="16014" xmlns:xlink="http://www.w3.org/1999/xlink" width="256" height="256"><path d="M902.8608 791.808c0-5.9392 15.36-7.0144 14.7456-48.8448-2.6624-206.3872-184.32-371.4048-405.4528-368.64s-398.4384 172.544-395.7248 378.88c0.6144 48.64 28.416 42.3424 28.7744 48.2816z" fill="#479DCF" p-id="16015"></path><path d="M130.5088 800.2048c-0.3072-5.9392-15.36-6.8096-15.36-48.5888-0.512-206.4384 178.432-374.2208 399.7184-374.784-115.5072 52.7872-209.4592 71.68-253.3376 269.7728-10.496 47.5136-6.144 147.3536-6.4512 153.2928z" fill="#3E91B7" p-id="16016"></path><path d="M190.2592 512a380.9792 380.9792 0 0 0-83.0976 186.368c-3.7376 26.8288-9.2672 61.7472 2.4064 87.4496a44.544 44.544 0 0 0 13.568 17.664 33.9456 33.9456 0 0 0 7.3216 4.4544c8.704 3.6352 5.12 5.12 2.3552-2.9696a13.2096 13.2096 0 0 0 12.3392 9.4208L808.96 805.7856l93.696-1.2288a13.0048 13.0048 0 0 0 12.3392-9.4208c-0.8192 3.8912 6.0416-7.168 7.936-10.8544a84.992 84.992 0 0 0 7.168-37.1712 341.248 341.248 0 0 0-12.5952-94.976 379.6992 379.6992 0 0 0-90.4704-159.9488C734.1568 393.3184 594.432 348.16 460.8 365.3632a431.7696 431.7696 0 0 0-227.7376 102.4C220.4672 478.6688 238.592 496.64 250.88 485.9392A412.6208 412.6208 0 0 1 636.9792 404.48c113.0496 33.9456 210.4832 119.296 249.2416 232.0384a339.0976 339.0976 0 0 1 18.2784 95.8976c0.6144 14.08 1.6896 30.0544-5.5808 42.7008-2.7136 4.7104-7.168 7.4752-8.3968 13.1072l12.3392-9.4208-664.0128 8.8064-93.696 1.2288 12.3392 9.4208c-3.7888-10.24-11.8272-8.7552-18.944-14.8992-17.9712-15.36-9.1648-59.3408-6.4-79.7184a352.8192 352.8192 0 0 1 76.2368-173.4656c10.24-12.6976-7.7824-30.72-18.1248-18.1248z" fill="#040000" p-id="16017"></path><path d="M689.7664 464.2816s-10.8032-6.4512-5.12-15.6672 26.5216 6.4512 46.5408 18.8416a174.592 174.592 0 0 1 29.2352 22.528c11.7248 9.9328 14.848 15.0016 7.7312 22.528-4.7616 5.12-12.6976 1.1264-17.2544-4.0448a176.7424 176.7424 0 0 0-28.9792-24.9344c-7.8848-6.0928-32.1536-19.2512-32.1536-19.2512zM773.12 529.0496s-4.864-5.12 5.12-12.4928 38.912 26.4704 57.7536 57.856a274.8928 274.8928 0 0 1 27.6992 63.4368c4.7104 14.6432 6.7584 18.6368-2.6112 23.0912-6.2464 2.9696-14.08-5.376-16.4352-11.8784-5.6832-15.36-22.0672-53.76-25.2928-59.8016-13.8752-25.8048-46.2336-60.2112-46.2336-60.2112z" fill="#62B6E1" p-id="16018"></path><path d="M35.84 776.96m66.56 0l829.44 0q66.56 0 66.56 66.56l0 13.6704q0 66.56-66.56 66.56l-829.44 0q-66.56 0-66.56-66.56l0-13.6704q0-66.56 66.56-66.56Z" fill="#D5812E" p-id="16019"></path><path d="M244.6848 923.7504H102.4a66.56 66.56 0 0 1-66.56-66.56v-13.6704a66.56 66.56 0 0 1 66.56-66.56h142.2848c36.608 0-15.36 29.952-15.36 66.56v13.6704c0 36.608 51.968 66.56 15.36 66.56z" fill="#BA6A23" p-id="16020"></path><path d="M825.3952 936.5504c33.1264 0 66.56 0.3072 99.4304 0 47.0528-0.4608 84.224-30.72 86.3232-79.36s-27.8016-90.9824-79.4112-93.0304c-10.24-0.4096-20.48 0-30.464 0h-455.68c-114.0736 0-229.376-5.12-343.3472 0-106.1376 4.5568-104.192 169.4208 1.9968 172.3904 52.1216 1.4336 104.448 0 156.6208 0 149.6576 0 299.4688 2.0992 449.1264 0h9.8304c16.4864 0 16.4864-25.6 0-25.6h-563.2c-16.5376 0-33.1264 0.4096-49.664 0-44.2368-1.1264-68.864-42.4448-55.6544-83.7632 15.36-47.6672 75.264-37.4272 114.0736-37.4272h658.2272c35.84 0 72.448-2.2016 108.2368 0 37.4272 2.304 56.0128 32.2048 53.76 67.4304-2.0992 33.28-26.0608 52.8896-58.3168 53.76-33.8944 0.9216-67.9424 0-101.888 0-16.4864 0-16.4864 25.6 0 25.6zM246.4768 111.3088c18.7904 13.3632 30.72 40.3968 22.6816 64.8704-9.2672 28.416-40.6528 40.96-49.7664 69.4784-15.36 47.9232 19.0976 104.1408 63.8464 122.112 15.36 6.144 21.9136-18.6368 6.8096-24.6784 5.12 1.9968-2.8672-1.536-3.6352-1.9456a96 96 0 0 1-13.056-8.704 85.4016 85.4016 0 0 1-28.672-44.3392c-10.6496-39.6288 14.2336-50.944 34.8672-78.1824 30.2592-39.5776 19.5072-92.7744-20.1728-120.9344-13.4656-9.5744-26.2656 12.6464-12.9024 22.1184z" fill="#040000" p-id="16021"></path><path d="M324.9152 111.3088c18.7904 13.3632 30.72 40.3968 22.6816 64.8704-9.2672 28.416-40.6528 40.96-49.7664 69.4784-15.36 47.9232 19.0976 104.1408 63.8464 122.112C376.8832 373.76 383.5392 349.184 368.64 343.04c5.12 1.9968-2.8672-1.536-3.6352-1.9456a96 96 0 0 1-13.056-8.704 85.4016 85.4016 0 0 1-28.672-44.3392C312.32 248.4736 337.3568 237.1584 357.9904 209.92c30.2592-39.5776 19.5072-92.7744-20.1728-120.9344-13.4656-9.5744-26.2656 12.6464-12.9024 22.1184zM693.0432 111.3088c18.7904 13.3632 30.72 40.3968 22.6816 64.8704-9.2672 28.416-40.6528 40.96-49.7664 69.4784-15.36 47.9232 19.0976 104.1408 63.8464 122.112 15.36 6.144 21.9136-18.6368 6.8096-24.6784 5.12 1.9968-2.8672-1.536-3.6352-1.9456a96 96 0 0 1-13.056-8.704 85.4016 85.4016 0 0 1-28.672-44.3392c-10.5984-39.6288 14.2848-50.944 34.9184-77.9264 30.2592-39.5776 19.5072-92.7744-20.1728-120.9344-13.4656-9.5744-26.2656 12.6464-12.9024 22.1184z" fill="#040000" p-id="16022"></path><path d="M771.4816 111.3088c18.7904 13.3632 30.72 40.3968 22.6816 64.8704-9.2672 28.416-40.6528 40.96-49.7664 69.4784-15.36 47.9232 19.0976 104.1408 63.8464 122.112 15.36 6.144 21.9136-18.6368 6.8096-24.6784 5.12 1.9968-2.8672-1.536-3.6352-1.9456a96 96 0 0 1-13.056-8.704 85.4016 85.4016 0 0 1-28.672-44.3392c-10.5984-39.6288 14.2848-50.944 34.9184-77.9264 29.952-39.5776 19.712-92.8256-20.224-120.9856-13.4656-9.5744-26.2656 12.6464-12.9024 22.1184z" fill="#040000" p-id="16023"></path><path d="M517.4272 317.952m-58.88 0a58.88 58.88 0 1 0 117.76 0 58.88 58.88 0 1 0-117.76 0Z" fill="#F7C56C" p-id="16024"></path><path d="M490.1376 322.304A76.8 76.8 0 0 0 527.36 374.7328a58.88 58.88 0 1 1-23.9104-115.3024c-11.9296 25.7536-19.9168 31.0272-13.312 62.8736z" fill="#DBAA5A" p-id="16025"></path><path d="M551.7312 255.0272c-32.256-14.9504-69.9392-9.3184-91.904 20.48a71.68 71.68 0 0 0 98.816 101.12c30.72-21.504 36.7616-59.648 21.9648-92.16-6.7584-15.0016-28.8256-1.9968-22.1184 12.9024 20.7872 46.08-36.8128 90.2144-73.6256 53.3504s7.9872-94.72 53.9648-73.5744c14.848 6.8608 27.8528-15.36 12.9024-22.1184z" fill="#040000" p-id="16026"></path></svg>