<?xml version="1.0" standalone="no"?><!DOCTYPE svg PUBLIC "-//W3C//DTD SVG 1.1//EN" "http://www.w3.org/Graphics/SVG/1.1/DTD/svg11.dtd"><svg t="1677748894627" class="icon" viewBox="0 0 1820 1024" version="1.1" xmlns="http://www.w3.org/2000/svg" p-id="107749" xmlns:xlink="http://www.w3.org/1999/xlink" width="455" height="256"><path d="M1329.642891 573.08042l6.421069 1.444741-6.421069-1.444741z m-777.912526-77.855463c-51.689607 0-94.068663 41.897476-94.389716 93.426556-0.321053 52.171187 41.736949 94.871296 94.71077 95.352876 51.850133 0 94.22919001-42.379056 94.389716-94.389716 0-25.202696-9.631604-48.800125-27.289544-66.618592-17.97899401-17.97899401-41.897476-27.771124-67.421226-27.771124z m0 133.879291c-21.99216199-0.160527-39.810629-18.300047-39.650102-40.292208 0.160527-21.51058199 17.818467-39.007995 39.489576-39.007995v-27.45007099 27.45007099c10.91581799 0 21.029001 4.173695 28.573757 11.718451 7.38422999 7.38422999 11.39739801 17.17636 11.39739801 27.771124 0 21.671108-18.13952 39.810629-39.81062901 39.810628z m0 0" fill="#f4ab62" p-id="107750" data-spm-anchor-id="a313x.7781069.0.i42" class=""></path><path d="M1482.945916 702.946543c0-59.073836-7.063176-258.126979-7.384229-265.992788-0.642107-48.15801801-34.35272-83.473899-63.087004-98.88446501l-6.100016-3.21053499c-15.41056601-8.186863-26.96849001-14.286879-35.636934-18.942154 28.413231-12.84213799 44.62642999-22.313215 46.87380501-23.597429 13.002665-7.705283 17.336887-24.560589 9.631604-37.56325401-7.705283-13.002665-24.560589-17.497413-37.56325501-9.631604-0.642107 0.321053-18.781627 10.91581799-52.01066 25.20269701-7.063176-20.38689401-14.126352-43.342217-21.189528-65.815959-13.163192-42.379056-26.807964-86.36338-40.77378899-116.38187801C1249.379527 31.784292 1202.50572199 1.76579401 1140.542405 1.76579401l-128.260856-0.16052701H846.778492c-52.49224 0-104.98448 0-157.958301-0.160526-65.815959 0-113.171343 30.179025-140.621414 89.73444101-17.336887 37.56325399-45.910644 123.124001-64.852798 179.78993499l-1.44474099 4.334222c-32.265872-12.200031-50.565919-20.868475-51.04749901-21.189528-13.484245-6.581596-30.01849799-0.96316-36.600094 12.68161101-6.581596 13.644772-0.96316 30.01849799 12.681611 36.60009499 2.24737401 1.123687 17.015833 8.186863 42.379057 18.13952-28.413231 13.805299-65.976485 33.710613-76.08967 46.231698-12.681612 15.731619-20.065841 31.463239-23.918482 51.208026-3.692115 18.94215399-13.965825 244.000627-13.965826 292.15864501 0 92.463396 57.950149 138.213513 103.21868701 155.38987399-0.321053 3.531588-0.48158 7.063176-0.48158 10.434237 0.160527 80.263364 61.160683 145.597743 136.287192 145.75826901h0.16052699c76.571249 0 141.424048-66.618592 141.584574-145.437216l393.93259101-0.64210701v1.765794c0.160527 69.508073 46.071171 144.313529 146.40037699 144.31352901 69.829127 0 115.258191-49.28170601 128.260856-95.51340301 7.544756-20.547421 8.026336-41.09484201 7.70528301-59.87647 40.13168201-16.534253 90.69760201-63.247531 90.53707399-164.37937zM535.356639 288.306004c18.46057401-55.542248 46.392224-139.3372 62.605424-174.010973C616.101583 74.644929 644.99639401 56.34488199 689.141245 56.34488199c52.49224 0.160527 105.145007 0.160527 157.637247 0.16052601h165.503057l128.10032901 0.160527C1181.47672 56.505408 1208.766264 74.00282199 1226.26367801 111.405549c12.521085 26.48691001 25.52374999 68.544913 38.04483399 109.318702 7.38422999 23.757956 14.92898599 47.997492 22.47374201 69.82912701-83.473899 30.179025-213.500549 64.210691-375.47201701 64.210692-155.22934599 0-290.55337801-33.229033-377.719392-61.48173701l1.765794-4.976329z m39.168522 679.34911399v27.45007101-27.45007101c-45.108011-0.160527-81.54757801-40.934316-81.708105-91.01865499v-2.88948101h168.39253799v3.050008c0 48.479072-40.61326201 90.858128-86.68443299 90.858128z m757.525631-56.18435499c-5.29738199 19.42373399-27.771124 56.34488199-75.768616 56.344882-67.42122601 0-91.500235-48.318545-91.66076199-89.573914v-4.173695h172.88728599c0 12.681612-0.80263399 24.560589-4.655275 34.8343-0.160527 0.80263399-0.48158 1.605267-0.802633 2.568427z m30.339551-92.302868H471.145948c-14.607932-3.210535-81.06599799-22.47374201-81.06599799-108.03448901 0-50.565919 10.273711-264.226995 12.84213799-281.40335399 2.568428-12.681612 6.742123-19.90531401 11.718451-26.165857 10.273711-9.31054999 74.96598201-41.255369 85.079166-45.26853701 6.581596-2.24737401 12.039505-6.742123 15.250039-12.84213899 90.858128 29.697445 231.640069 64.210691 396.17996599 64.210692 172.084653 0 309.013952-36.11851399 396.98259901-68.22386 5.77896199 6.26054199 20.226368 14.44740601 72.718608 42.05800299l5.45790901 2.88948101c12.681612 6.902649 34.03166601 25.363223 34.51324599 52.17118699 0 2.086847 7.38422999 206.597899 7.38423001 264.548048 0.160527 97.921304-55.060668 113.81344999-65.81595901 116.06082501z m0 0" fill="" p-id="107751"></path><path d="M1268.64273399 495.06443001c-25.684277 0-49.76328601 9.952657-67.74227899 28.252704-17.818467 17.97899401-27.289544 41.576423-27.12901701 66.77911899 0.642107 51.689607 43.021163 93.908136 94.71076901 94.068663 25.04216999 0 48.639599-9.79213001 66.458066-27.610597 17.97899401-17.97899401 27.771124-41.897476 27.771124-67.58175301 0-52.652767-41.255369-93.747609-94.06866301-93.908136z m27.61059701 122.80294699c-7.38422999 7.38422999-17.17636 11.39739801-27.771124 11.397398-21.350055 0-39.489575-18.300047-39.810628-39.81062899-0.160527-10.273711 3.852641-20.065841 11.23687099-27.61059701 7.544756-7.705283 17.818467-11.87897801 28.734284-11.878978 21.99216199 0 39.329048 17.17636 39.329048 39.00799501 0 11.076344-4.173695 21.189528-11.71845099 28.89481099zM756.241417 120.39504601c-10.755291-10.755291-28.092177-10.755291-38.686941-2e-8L643.391127 194.397868c-10.755291 10.755291-10.755291 28.092177 0 38.68694199 5.29738199 5.29738199 12.36055799 8.026336 19.423734 8.026336 7.063176 0 13.965825-2.72895399 19.423734-8.026336L756.241417 159.081988c10.755291-10.755291 10.755291-28.092177 0-38.68694199z m174.974134-31.14218501c-10.755291-10.594764-28.092177-10.594764-38.686942 0.160527l-142.547734 144.313528c-10.594764 10.755291-10.594764 28.092177 0.160526 38.68694199 5.136855 5.136855 12.039505 7.86580999 19.263208 7.86581001 7.38422999 0 14.286879-2.889481 19.423734-8.186863l142.54773499-144.313529c10.755291-10.594764 10.594764-27.931651-0.16052699-38.526415z m82.671265 558.633015H796.212573c-15.089512 0-27.450071 12.200031-27.45007099 27.45007001s12.200031 27.450071 27.45007099 27.45007099h217.674243c15.089512 0 27.450071-12.200031 27.450071-27.45007099 0-15.089512-12.200031-27.450071-27.450071-27.45007001z m0 0" fill="#f4ab62" p-id="107752" data-spm-anchor-id="a313x.7781069.0.i41" class=""></path></svg>