<?xml version="1.0" standalone="no"?><!DOCTYPE svg PUBLIC "-//W3C//DTD SVG 1.1//EN" "http://www.w3.org/Graphics/SVG/1.1/DTD/svg11.dtd"><svg t="1677748544309" class="icon" viewBox="0 0 1024 1024" version="1.1" xmlns="http://www.w3.org/2000/svg" p-id="82433" xmlns:xlink="http://www.w3.org/1999/xlink" width="256" height="256"><path d="M876.29 918.79H147.71A86 86 0 0 1 62 833.08V404.51a86 86 0 0 1 85.71-85.72h728.58A86 86 0 0 1 962 404.51v428.57a86 86 0 0 1-85.71 85.71z" fill="#8a8a8a" p-id="82434" data-spm-anchor-id="a313x.7781069.0.i28" class="selected"></path><path d="M844.14 468.79H179.86c-17.15 0-32.15-15-32.15-32.14s15-32.14 32.15-32.14h664.28c17.15 0 32.15 15 32.15 32.14s-15 32.14-32.15 32.14z" fill="#FFFFFF" p-id="82435"></path><path d="M844.14 833.08H737c-17.14 0-32.14-15-32.14-32.15s15-32.14 32.14-32.14h107.14c17.15 0 32.15 15 32.15 32.14s-15 32.15-32.15 32.15z m-214.28 0H522.71c-17.14 0-32.14-15-32.14-32.15s15-32.14 32.14-32.14h107.15c17.14 0 32.14 15 32.14 32.14s-15 32.15-32.14 32.15zM364.14 113.08c-42.85-19.29-94.28-2.15-113.57 40.71l-77.14 165h632.14z" fill="#FFD4B0" p-id="82436"></path></svg>