<?xml version="1.0" standalone="no"?><!DOCTYPE svg PUBLIC "-//W3C//DTD SVG 1.1//EN" "http://www.w3.org/Graphics/SVG/1.1/DTD/svg11.dtd"><svg t="1677201815626" class="icon" viewBox="0 0 1024 1024" version="1.1" xmlns="http://www.w3.org/2000/svg" p-id="66671" xmlns:xlink="http://www.w3.org/1999/xlink" width="256" height="256"><path d="M512 1024C229.248 1024 0 794.752 0 512S229.248 0 512 0s512 229.248 512 512-229.248 512-512 512z m277.461333-487.466667h-5.845333v-93.525333c0-2.176-1.706667-3.925333-3.882667-3.925333H220.288c-2.133333 0-3.925333 1.749333-3.925333 3.925333v93.525333h-5.845334c-2.133333 0-3.882667 1.749333-3.882666 3.925334v44.8c0 2.176 1.706667 3.925333 3.882666 3.925333h5.845334v93.568c0 2.133333 1.749333 3.882667 3.925333 3.882667h510.72v25.344a19.498667 19.498667 0 0 1-19.498667 19.498666h-237.824a9.770667 9.770667 0 0 1-9.770666-9.728 15.616 15.616 0 0 0-15.573334-15.616H375.893333a3.882667 3.882667 0 0 0-2.773333 6.656l57.685333 57.685334 7.936 7.936a19.498667 19.498667 0 0 0 13.781334 5.717333h278.485333c29.056 0 52.608-23.594667 52.608-52.650667V589.226667h5.845333c2.176 0 3.925333-1.706667 3.925334-3.882667v-44.842667c0-2.133333-1.749333-3.925333-3.925334-3.925333z m-58.453333 52.650667v44.842667h-215.424l10.752-44.8h204.672z m-204.672-97.450667h200.746667c2.133333 0 3.925333 1.706667 3.925333 3.882667v40.96h-214.442667l9.770667-44.842667z m-257.322667 138.410667v-40.96h205.653334l-10.752 44.842667H272.896a3.925333 3.925333 0 0 1-3.882667-3.882667z m0-93.610667v-40.917333c0-2.133333 1.706667-3.882667 3.882667-3.882667h200.789333l-9.770666 44.8H269.013333z m257.28-97.450666v-44.8h253.44c2.133333 0 3.882667-1.792 3.882667-3.925334v-44.8c0-2.176-1.706667-3.925333-3.882667-3.925333h-253.44V296.789333h253.44c2.133333 0 3.882667-1.706667 3.882667-3.882666V248.064c0-2.133333-1.706667-3.882667-3.882667-3.882667h-253.44v-5.888c0-2.133333-1.706667-3.84-3.84-3.84h-44.885333c-2.133333 0-3.882667 1.706667-3.882667 3.84v5.888h-253.44c-2.133333 0-3.84 1.706667-3.84 3.84v44.885334c0 2.133333 1.706667 3.84 3.84 3.84h253.44v44.885333h-253.44c-2.133333 0-3.84 1.706667-3.84 3.882667V390.4c0 2.133333 1.706667 3.882667 3.84 3.882667h253.44v44.842666h52.650667z" fill="#040000" p-id="66672"></path></svg>