<?xml version="1.0" standalone="no"?><!DOCTYPE svg PUBLIC "-//W3C//DTD SVG 1.1//EN" "http://www.w3.org/Graphics/SVG/1.1/DTD/svg11.dtd"><svg t="1677748014732" class="icon" viewBox="0 0 1024 1024" version="1.1" xmlns="http://www.w3.org/2000/svg" p-id="35631" xmlns:xlink="http://www.w3.org/1999/xlink" width="256" height="256"><path d="M512 974.933333c-266.666667 0-482.133333-215.466667-482.133333-482.133333C29.866667 226.133333 245.333333 10.666667 512 10.666667c266.666667 0 482.133333 215.466667 482.133333 482.133333 0 264.533333-215.466667 482.133333-482.133333 482.133333z m0-900.266666c-230.4 0-418.133333 187.733333-418.133333 418.133333S281.6 910.933333 512 910.933333s418.133333-187.733333 418.133333-418.133333S742.4 74.666667 512 74.666667z" fill="#543E3E" p-id="35632"></path><path d="M512 334.933333c-59.733333 0-106.666667-49.066667-106.666667-106.666666s49.066667-106.666667 106.666667-106.666667 106.666667 49.066667 106.666667 106.666667-46.933333 106.666667-106.666667 106.666666z m0-151.466666c-23.466667 0-42.666667 19.2-42.666667 42.666666s19.2 42.666667 42.666667 42.666667 42.666667-19.2 42.666667-42.666667-19.2-42.666667-42.666667-42.666666zM774.4 599.466667c-59.733333 0-106.666667-49.066667-106.666667-106.666667 0-59.733333 49.066667-106.666667 106.666667-106.666667s106.666667 49.066667 106.666667 106.666667c2.133333 59.733333-46.933333 106.666667-106.666667 106.666667z m0-149.333334c-23.466667 0-42.666667 19.2-42.666667 42.666667s19.2 42.666667 42.666667 42.666667 42.666667-19.2 42.666667-42.666667c2.133333-23.466667-17.066667-42.666667-42.666667-42.666667zM249.6 599.466667c-59.733333 0-106.666667-49.066667-106.666667-106.666667 0-59.733333 49.066667-106.666667 106.666667-106.666667 59.733333 0 106.666667 49.066667 106.666667 106.666667 0 59.733333-46.933333 106.666667-106.666667 106.666667z m0-149.333334c-23.466667 0-42.666667 19.2-42.666667 42.666667s19.2 42.666667 42.666667 42.666667 42.666667-19.2 42.666667-42.666667-19.2-42.666667-42.666667-42.666667zM512 881.066667c-59.733333 0-106.666667-49.066667-106.666667-106.666667s49.066667-106.666667 106.666667-106.666667 106.666667 49.066667 106.666667 106.666667-46.933333 106.666667-106.666667 106.666667z m0-151.466667c-23.466667 0-42.666667 19.2-42.666667 42.666667s19.2 42.666667 42.666667 42.666666 42.666667-19.2 42.666667-42.666666-19.2-42.666667-42.666667-42.666667z" fill="#FFBB12" p-id="35633"></path></svg>