<?xml version="1.0" standalone="no"?><!DOCTYPE svg PUBLIC "-//W3C//DTD SVG 1.1//EN" "http://www.w3.org/Graphics/SVG/1.1/DTD/svg11.dtd"><svg t="1678341382862" class="icon" viewBox="0 0 1024 1024" version="1.1" xmlns="http://www.w3.org/2000/svg" p-id="34988" xmlns:xlink="http://www.w3.org/1999/xlink" width="256" height="256"><path d="M511.744 68.2496c-173.5168 0-314.0096 136.3456-314.7776 305.9712 0 60.928 18.1248 118.8864 51.7632 168.448l3.328 4.7104 1.8944 3.1744 1.536 2.3552c1.0752 1.536 2.2016 3.072 3.4816 4.5056l0.768 0.8704 200.192 232.8064a68.3008 68.3008 0 0 0 103.6288-0.1536l199.1168-232.8576-1.3312 1.4336a50.3296 50.3296 0 0 0 5.3248-6.6048l1.536-2.3552 1.8432-3.0208a302.3872 302.3872 0 0 0 55.808-172.7488c0-169.8304-140.8512-306.5344-314.112-306.5344z m0 68.3008c135.9872 0 245.8624 106.5984 245.8624 237.824a235.3664 235.3664 0 0 1-44.032 134.7584l-2.9184 4.6592-199.0144 232.8064-200.192-232.8064-1.8944-3.2256-1.024-1.4336a230.2464 230.2464 0 0 1-43.264-134.7584c0.5632-131.5328 110.1312-237.824 246.4768-237.824z" fill="#f4ab62" p-id="34989"></path><path d="M783.8208 714.752a34.1504 34.1504 0 0 1 45.2096 9.984l1.4848 2.2528 73.3696 125.7472a68.2496 68.2496 0 0 1-54.784 102.5536l-4.608 0.1024-666.0096-3.584a68.2496 68.2496 0 0 1-60.672-98.8672l2.1504-3.9424 69.9392-119.296a34.1504 34.1504 0 0 1 60.16 32.2048l-1.28 2.3552-69.9392 119.2448 666.112 3.6352-73.4208-125.7472a34.0992 34.0992 0 0 1 12.288-46.6432zM512 243.968a136.5504 136.5504 0 1 0 0 273.1008 136.5504 136.5504 0 0 0 0-273.1008z m0 68.2496a68.3008 68.3008 0 1 1 0 136.5504 68.3008 68.3008 0 0 1 0-136.5504z" fill="#f4ab62" p-id="34990"></path></svg>