<?xml version="1.0" standalone="no"?><!DOCTYPE svg PUBLIC "-//W3C//DTD SVG 1.1//EN" "http://www.w3.org/Graphics/SVG/1.1/DTD/svg11.dtd"><svg t="1677209846535" class="icon" viewBox="0 0 10313 1024" version="1.1" xmlns="http://www.w3.org/2000/svg" p-id="21590" xmlns:xlink="http://www.w3.org/1999/xlink" width="2578.25" height="256"><path d="M270.628571 29.257143l7.314286-7.314286c219.428571 51.2 146.285714 204.8 73.142857 153.6-7.314286-51.2-51.2-109.714286-80.457143-146.285714zM65.828571 482.742857h394.971429V358.4h-292.571429v-29.257143h299.885715V212.114286H117.028571l-7.314285-29.257143H585.142857c29.257143-51.2 58.514286-117.028571 73.142857-168.228572l117.028572 36.571429c-7.314286 14.628571-14.628571 21.942857-36.571429 14.628571C709.485714 102.4 658.285714 146.285714 614.4 182.857143h168.228571l51.2-65.828572s58.514286 43.885714 95.085715 80.457143c0 14.628571-14.628571 14.628571-29.257143 14.628572H548.571429v117.028571h190.171428l51.2-65.828571s58.514286 43.885714 95.085714 73.142857c0 14.628571-14.628571 14.628571-29.257142 14.628571H548.571429v124.342857h263.314285l51.2-65.828571s58.514286 43.885714 95.085715 80.457143c7.314286 14.628571-7.314286 21.942857-21.942858 21.942857H73.142857l-7.314286-29.257143z m892.342858 190.171429H563.2c80.457143 124.342857 234.057143 175.542857 431.542857 190.171428v14.628572c-36.571429 7.314286-58.514286 36.571429-65.828571 73.142857-197.485714-43.885714-321.828571-117.028571-387.657143-277.942857h-21.942857C482.742857 804.571429 387.657143 899.657143 43.885714 958.171429l-7.314285-21.942858c263.314286-73.142857 358.4-153.6 394.971428-263.314285H51.2l-7.314286-29.257143H438.857143c7.314286-36.571429 14.628571-80.457143 14.628571-124.342857l124.342857 14.628571c0 14.628571-14.628571 21.942857-36.571428 29.257143 0 29.257143-7.314286 58.514286-14.628572 80.457143h299.885715l51.2-65.828572s65.828571 43.885714 102.4 80.457143c0 14.628571-7.314286 14.628571-21.942857 14.628572z m533.942857 29.257143l7.314285-14.628572c102.4 14.628571 182.857143 36.571429 256 58.514286 58.514286-36.571429 117.028571-95.085714 146.285715-131.657143l95.085714 65.828571c-7.314286 7.314286-14.628571 14.628571-36.571429 7.314286-43.885714 21.942857-109.714286 51.2-168.228571 73.142857 226.742857 87.771429 234.057143 204.8 153.6 190.171429-95.085714-95.085714-307.2-204.8-453.485714-248.685714z m292.571428-343.771429h-373.028571v102.4h373.028571V358.4z m-373.028571 234.057143h373.028571V490.057143h-373.028571v102.4zM1543.314286 14.628571l138.971428 36.571429c0 7.314286-14.628571 14.628571-43.885714 21.942857 95.085714 95.085714 270.628571 160.914286 431.542857 204.8V292.571429c-36.571429 7.314286-65.828571 43.885714-73.142857 80.457142-153.6-65.828571-299.885714-168.228571-380.342857-285.257142-29.257143 29.257143-65.828571 65.828571-109.714286 102.4 219.428571 43.885714 146.285714 190.171429 73.142857 131.657142 0-43.885714-43.885714-102.4-73.142857-131.657142l7.314286-7.314286c-51.2 43.885714-109.714286 80.457143-168.228572 117.028571l80.457143 29.257143h351.085715l43.885714-43.885714 80.457143 65.828571c0 7.314286-14.628571 14.628571-36.571429 21.942857v256c0 7.314286-43.885714 29.257143-65.828571 29.257143h-14.628572v-29.257143h-373.028571v219.428572c65.828571-14.628571 153.6-29.257143 241.371428-43.885714l7.314286 14.628571c-65.828571 29.257143-175.542857 73.142857-307.2 124.342857l-21.942857 21.942857-51.2-80.457143c43.885714-29.257143 51.2-29.257143 51.2-51.2v-512c-65.828571 36.571429-131.657143 73.142857-197.485714 95.085715l-7.314286-14.628572c160.914286-102.4 365.714286-270.628571 416.914286-387.657143z m1301.942857 43.885715l7.314286-7.314286c234.057143 65.828571 168.228571 219.428571 95.085714 168.228571-14.628571-58.514286-65.828571-124.342857-102.4-160.914285z m-424.228572 226.742857l51.2 21.942857c-7.314286 7.314286-14.628571 14.628571-29.257142 21.942857v607.085714c0 7.314286-36.571429 21.942857-65.828572 21.942858h-14.628571V387.657143c-43.885714 65.828571-95.085714 117.028571-153.6 160.914286l-14.628572-14.628572C2296.685714 409.6 2391.771429 219.428571 2450.285714 14.628571l117.028572 43.885715c-7.314286 14.628571-14.628571 21.942857-36.571429 21.942857-29.257143 73.142857-65.828571 146.285714-109.714286 204.8z m702.171429 394.971428l7.314286 160.914286c21.942857 7.314286 29.257143 21.942857 29.257143 36.571429 0 36.571429-36.571429 51.2-175.542858 51.2h-87.771428c-80.457143 0-95.085714-21.942857-95.085714-80.457143V329.142857h-43.885715c-7.314286 270.628571-58.514286 482.742857-292.571428 636.342857l-14.628572-14.628571c182.857143-153.6 219.428571-358.4 226.742857-614.4h-175.542857l-7.314285-29.257143h182.857142V21.942857l124.342858 14.628572c0 14.628571-14.628571 21.942857-36.571429 29.257142v241.371429h226.742857l58.514286-73.142857s65.828571 51.2 102.4 80.457143c0 14.628571-14.628571 14.628571-29.257143 14.628571h-234.057143v497.371429c0 21.942857 7.314286 21.942857 36.571429 21.942857h138.971428c7.314286 0 14.628571-7.314286 21.942857-14.628572 7.314286-14.628571 21.942857-87.771429 36.571429-153.6z m446.171429 124.342858l-7.314286-14.628572c131.657143-87.771429 168.228571-190.171429 175.542857-343.771428h-146.285714l-7.314286-29.257143h263.314286V234.057143h-131.657143c-29.257143 58.514286-65.828571 109.714286-109.714286 146.285714l-14.628571-7.314286c43.885714-80.457143 87.771429-197.485714 102.4-321.828571l117.028571 29.257143c-7.314286 14.628571-14.628571 21.942857-36.571428 21.942857-14.628571 36.571429-21.942857 65.828571-43.885715 102.4h124.342857V21.942857l95.085715 14.628572c0 14.628571-14.628571 21.942857-36.571429 29.257142v138.971429H4022.857143l51.2-65.828571s58.514286 43.885714 95.085714 80.457142c0 14.628571-14.628571 14.628571-29.257143 14.628572h-226.742857v175.542857h146.285714l51.2-65.828571s58.514286 43.885714 95.085715 80.457142c0 14.628571-14.628571 14.628571-29.257143 14.628572h-182.857143v256c0 14.628571 0 14.628571 21.942857 14.628571H4110.628571c7.314286 0 14.628571 0 14.628572-14.628571 7.314286-14.628571 21.942857-73.142857 29.257143-131.657143h14.628571v131.657143c21.942857 7.314286 21.942857 21.942857 21.942857 36.571428 0 29.257143-29.257143 43.885714-138.971428 43.885715h-65.828572c-65.828571 0-80.457143-21.942857-80.457143-65.828572V446.171429H3803.428571c0 175.542857-65.828571 285.257143-234.057142 358.4zM3328 43.885714l14.628571-7.314285c248.685714 109.714286 182.857143 285.257143 102.4 219.428571-21.942857-65.828571-73.142857-160.914286-117.028571-212.114286z m160.914286 373.028572v329.142857l7.314285 7.314286c87.771429 87.771429 204.8 102.4 394.971429 102.4 117.028571 0 212.114286 0 329.142857-7.314286v14.628571c-36.571429 7.314286-51.2 36.571429-58.514286 65.828572h-299.885714c-197.485714 0-292.571429-36.571429-387.657143-146.285715-14.628571-14.628571-21.942857-14.628571-36.571428 0-21.942857 29.257143-73.142857 95.085714-102.4 146.285715 7.314286 7.314286 0 14.628571-7.314286 21.942857l-65.828571-87.771429c36.571429-29.257143 95.085714-73.142857 138.971428-102.4V402.285714h-131.657143l-7.314285-29.257143h124.342857l43.885714-58.514285 95.085714 80.457143c7.314286 7.314286-7.314286 14.628571-36.571428 21.942857z m1323.885714 234.057143l36.571429-36.571429h7.314285c14.628571 0 21.942857 7.314286 29.257143 7.314286 14.628571-7.314286 29.257143-21.942857 29.257143-36.571429s7.314286-36.571429 14.628571-80.457143l29.257143-212.114285c-36.571429 0-73.142857 14.628571-95.085714 29.257142s-36.571429 43.885714-36.571429 73.142858c0 14.628571 7.314286 29.257143 14.628572 43.885714l-43.885714 43.885714c-7.314286-14.628571-7.314286-29.257143-7.314286-43.885714 0-51.2 21.942857-95.085714 65.828571-124.342857s102.4-51.2 168.228572-51.2c87.771429 0 131.657143 21.942857 131.657143 73.142857 0 43.885714-29.257143 80.457143-87.771429 102.4 58.514286 21.942857 80.457143 58.514286 80.457143 102.4 0 36.571429-21.942857 65.828571-58.514286 87.771428s-87.771429 29.257143-146.285714 29.257143c-36.571429 7.314286-80.457143 0-131.657143-7.314285zM5002.971429 292.571429l-14.628572 146.285714h58.514286c43.885714-21.942857 58.514286-51.2 58.514286-87.771429 7.314286-36.571429-29.257143-58.514286-102.4-58.514285z m-14.628572 175.542857l-7.314286 36.571428v21.942857c0 29.257143-7.314286 51.2-14.628571 58.514286s-21.942857 21.942857-51.2 36.571429c36.571429 7.314286 73.142857 7.314286 109.714286 7.314285 58.514286 0 87.771429-21.942857 87.771428-73.142857 0-21.942857-7.314286-36.571429-21.942857-58.514285s-43.885714-21.942857-65.828571-29.257143h-36.571429z m468.114286 102.4c7.314286 0 7.314286 7.314286 7.314286 14.628571s-7.314286 14.628571-14.628572 29.257143c-29.257143 36.571429-65.828571 58.514286-95.085714 58.514286-21.942857 0-36.571429-7.314286-51.2-21.942857s-21.942857-36.571429-21.942857-58.514286c0-43.885714 14.628571-87.771429 51.2-131.657143s65.828571-65.828571 95.085714-65.828571c21.942857 0 36.571429 14.628571 36.571429 36.571428 0 29.257143-14.628571 58.514286-43.885715 80.457143s-58.514286 43.885714-102.4 58.514286c7.314286 43.885714 21.942857 65.828571 51.2 65.828571 36.571429-7.314286 65.828571-29.257143 87.771429-65.828571z m-131.657143-43.885715h14.628571c21.942857 0 43.885714-7.314286 58.514286-21.942857s29.257143-29.257143 29.257143-51.2c0-21.942857-14.628571-36.571429-36.571429-36.571428-14.628571 0-29.257143 7.314286-43.885714 29.257143-14.628571 21.942857-21.942857 51.2-21.942857 80.457142z m226.742857 124.342858l36.571429-29.257143c14.628571 14.628571 36.571429 21.942857 58.514285 21.942857 29.257143 0 43.885714-14.628571 43.885715-36.571429 0-14.628571-14.628571-36.571429-36.571429-58.514285l-21.942857-21.942858c-21.942857-21.942857-36.571429-43.885714-36.571429-58.514285 0-21.942857 7.314286-43.885714 29.257143-58.514286s43.885714-21.942857 73.142857-21.942857c14.628571 0 29.257143 0 51.2 7.314286l-36.571428 29.257142c-14.628571-7.314286-29.257143-14.628571-51.2-14.628571-21.942857 0-29.257143 7.314286-29.257143 29.257143 0 14.628571 14.628571 29.257143 36.571429 51.2l14.628571 21.942857c29.257143 29.257143 36.571429 51.2 36.571429 65.828571 0 21.942857-14.628571 43.885714-36.571429 65.828572s-51.2 29.257143-80.457143 29.257143c-14.628571-7.314286-29.257143-14.628571-51.2-21.942857z m387.657143-226.742858L5924.571429 548.571429c0 21.942857-7.314286 36.571429-7.314286 51.2 0 21.942857 7.314286 29.257143 21.942857 29.257142 14.628571 0 29.257143-14.628571 51.2-36.571428l7.314286 7.314286c0 7.314286-7.314286 21.942857-29.257143 36.571428-21.942857 14.628571-36.571429 21.942857-51.2 21.942857-29.257143 0-43.885714-14.628571-43.885714-51.2 0-14.628571 0-36.571429 7.314285-58.514285l14.628572-124.342858h-58.514286l36.571429-36.571428h29.257142l7.314286-51.2 43.885714-14.628572-7.314285 65.828572H6070.857143l-36.571429 36.571428h-95.085714z m490.057143 241.371429c-43.885714 0-65.828571-29.257143-65.828572-87.771429 0-43.885714 14.628571-87.771429 51.2-131.657142s65.828571-65.828571 102.4-65.828572c43.885714 0 65.828571 29.257143 65.828572 87.771429 0 43.885714-14.628571 87.771429-51.2 131.657143s-65.828571 65.828571-102.4 65.828571z m36.571428-29.257143c21.942857 0 43.885714-14.628571 58.514286-36.571428s21.942857-51.2 21.942857-87.771429c0-58.514286-21.942857-87.771429-58.514285-87.771429-21.942857 0-36.571429 14.628571-51.2 36.571429-14.628571 21.942857-21.942857 51.2-21.942858 87.771429-7.314286 58.514286 14.628571 87.771429 51.2 87.771428z m314.514286-212.114286L6758.4 658.285714c-7.314286 51.2-14.628571 95.085714-21.942857 117.028572s-29.257143 51.2-51.2 73.142857c-36.571429 29.257143-73.142857 51.2-117.028572 51.2-7.314286 0-21.942857 0-36.571428-7.314286l36.571428-36.571428c14.628571 7.314286 29.257143 7.314286 43.885715 7.314285 58.514286 0 87.771429-43.885714 95.085714-124.342857l7.314286-73.142857 21.942857-241.371429h-51.2l29.257143-36.571428h21.942857v-14.628572c7.314286-73.142857 29.257143-124.342857 58.514286-168.228571S6875.428571 146.285714 6926.628571 146.285714h36.571429l-36.571429 36.571429c-14.628571-7.314286-29.257143-7.314286-43.885714-7.314286-29.257143 0-58.514286 14.628571-73.142857 36.571429s-21.942857 65.828571-29.257143 131.657143l-7.314286 43.885714h117.028572l-36.571429 36.571428h-73.142857z m490.057143 0l-14.628571 124.342858c0 21.942857-7.314286 36.571429-7.314286 51.2 0 21.942857 7.314286 29.257143 21.942857 29.257142 14.628571 0 29.257143-14.628571 51.2-36.571428l7.314286 7.314286c0 7.314286-7.314286 21.942857-29.257143 36.571428s-36.571429 21.942857-51.2 21.942857c-29.257143 0-43.885714-14.628571-43.885714-51.2 0-14.628571 0-36.571429 7.314285-58.514285l14.628572-124.342858H7168l36.571429-36.571428h29.257142l7.314286-43.885714 43.885714-14.628572-7.314285 65.828572h124.342857l-36.571429 36.571428h-95.085714z m256 73.142858c21.942857-36.571429 43.885714-58.514286 73.142857-80.457143 29.257143-21.942857 51.2-29.257143 65.828572-29.257143 21.942857 0 29.257143 14.628571 29.257142 36.571428v36.571429l-14.628571 102.4c0 21.942857-7.314286 36.571429-7.314286 51.2 0 7.314286 0 14.628571 7.314286 14.628571 14.628571 0 29.257143-14.628571 51.2-51.2 7.314286 0 7.314286 7.314286 7.314286 7.314286 0 14.628571-7.314286 29.257143-29.257143 51.2s-36.571429 29.257143-51.2 29.257143c-14.628571 0-21.942857-7.314286-21.942857-29.257143 0-14.628571 0-36.571429 7.314285-65.828571l7.314286-65.828572c0-21.942857 7.314286-43.885714 7.314286-51.2 0-14.628571-7.314286-21.942857-14.628572-21.942857-21.942857 0-51.2 14.628571-73.142857 51.2s-36.571429 65.828571-43.885714 109.714286l-7.314286 65.828571-43.885714 14.628572v-51.2l29.257143-248.685715c7.314286-58.514286 29.257143-109.714286 65.828571-153.6 36.571429-43.885714 80.457143-65.828571 124.342857-65.828571h29.257143l-43.885714 43.885714c-7.314286 0-21.942857-7.314286-29.257143-7.314285-58.514286 0-87.771429 43.885714-102.4 131.657142l-21.942857 175.542858z m468.114286 73.142857c7.314286 0 7.314286 7.314286 7.314285 14.628571s-7.314286 14.628571-14.628571 29.257143c-29.257143 36.571429-65.828571 58.514286-95.085714 58.514286-21.942857 0-36.571429-7.314286-51.2-21.942857s-21.942857-36.571429-21.942857-58.514286c0-43.885714 14.628571-87.771429 51.2-131.657143 29.257143-43.885714 65.828571-65.828571 95.085714-65.828571 21.942857 0 36.571429 14.628571 36.571428 36.571428 0 29.257143-14.628571 58.514286-43.885714 80.457143-29.257143 29.257143-58.514286 43.885714-102.4 58.514286 7.314286 43.885714 21.942857 65.828571 51.2 65.828571 43.885714-7.314286 73.142857-29.257143 87.771429-65.828571z m-131.657143-43.885715h14.628571c21.942857 0 43.885714-7.314286 58.514286-21.942857s29.257143-29.257143 29.257143-51.2c0-21.942857-14.628571-36.571429-36.571429-36.571428-14.628571 0-29.257143 7.314286-43.885714 29.257143-7.314286 21.942857-14.628571 51.2-21.942857 80.457142z m504.685714 124.342858l36.571429-43.885715c7.314286 0 21.942857 7.314286 43.885714 7.314286 14.628571-7.314286 21.942857-21.942857 29.257143-29.257143s7.314286-36.571429 14.628571-80.457143l21.942857-212.114285c-87.771429 7.314286-131.657143 43.885714-131.657142 95.085714 0 14.628571 7.314286 29.257143 14.628571 51.2l-43.885714 43.885714c-7.314286-14.628571-14.628571-21.942857-14.628572-43.885714 0-58.514286 21.942857-102.4 65.828572-131.657143s109.714286-43.885714 190.171428-43.885714c138.971429 0 204.8 51.2 204.8 146.285714 0 58.514286-21.942857 109.714286-58.514285 160.914286-51.2 65.828571-131.657143 95.085714-234.057143 95.085714-36.571429 0-87.771429-7.314286-138.971429-14.628571z m190.171429-365.714286l-21.942857 212.114286v29.257142c0 21.942857-7.314286 43.885714-14.628572 51.2s-21.942857 21.942857-43.885714 36.571429c43.885714 7.314286 80.457143 7.314286 117.028571 7.314286s58.514286-7.314286 80.457143-14.628572 36.571429-29.257143 51.2-51.2c21.942857-36.571429 36.571429-80.457143 36.571429-124.342857 0-102.4-65.828571-153.6-190.171429-153.6h-14.628571z m482.742857 292.571428c7.314286 0 7.314286 7.314286 7.314286 7.314286 0 7.314286-7.314286 21.942857-21.942858 43.885714-21.942857 29.257143-43.885714 43.885714-58.514285 43.885715-14.628571 0-21.942857-7.314286-21.942857-29.257143 0-7.314286 0-29.257143 7.314285-73.142857l14.628572-80.457143v-36.571429V438.857143c0-7.314286 0-14.628571-7.314286-14.628572-14.628571 0-29.257143 14.628571-51.2 51.2l-7.314286-7.314285c0-14.628571 7.314286-29.257143 29.257143-43.885715s36.571429-29.257143 51.2-29.257142c14.628571 0 21.942857 7.314286 21.942857 29.257142V490.057143l-14.628571 80.457143V585.142857c0 14.628571-7.314286 29.257143-7.314286 36.571429 0 7.314286 0 14.628571 7.314286 14.628571 21.942857-7.314286 36.571429-21.942857 51.2-58.514286z m-58.514286-226.742857l21.942857-58.514285c21.942857-7.314286 36.571429-21.942857 51.2-36.571429v7.314286c7.314286 21.942857-14.628571 51.2-73.142857 87.771428z m153.6 299.885715l36.571429-29.257143c14.628571 14.628571 36.571429 21.942857 58.514285 21.942857 29.257143 0 43.885714-14.628571 43.885715-36.571429 0-14.628571-14.628571-36.571429-36.571429-58.514285l-21.942857-21.942858c-21.942857-21.942857-36.571429-43.885714-36.571429-58.514285 0-21.942857 7.314286-43.885714 29.257143-58.514286s43.885714-21.942857 73.142857-21.942857c14.628571 0 29.257143 0 51.2 7.314286l-36.571428 29.257142c-14.628571-7.314286-29.257143-14.628571-51.2-14.628571-21.942857 0-29.257143 7.314286-29.257143 29.257143 0 14.628571 14.628571 29.257143 36.571429 51.2l14.628571 21.942857c29.257143 29.257143 36.571429 51.2 36.571429 65.828571 0 21.942857-14.628571 43.885714-36.571429 65.828572s-51.2 29.257143-80.457143 29.257143c-14.628571-7.314286-36.571429-14.628571-51.2-21.942857z m373.028572-153.6c21.942857-36.571429 43.885714-58.514286 73.142857-80.457143s51.2-29.257143 65.828571-29.257143c21.942857 0 29.257143 14.628571 29.257143 36.571428v36.571429l-21.942857 102.4c0 21.942857-7.314286 36.571429-7.314286 51.2 0 7.314286 0 14.628571 7.314286 14.628571 14.628571 0 29.257143-14.628571 51.2-51.2 7.314286 0 7.314286 7.314286 7.314286 7.314286 0 14.628571-7.314286 29.257143-29.257143 51.2s-36.571429 29.257143-51.2 29.257143c-14.628571 0-21.942857-7.314286-21.942857-29.257143 0-14.628571 0-36.571429 7.314285-65.828571l7.314286-65.828572c0-21.942857 7.314286-43.885714 7.314286-51.2 0-14.628571-7.314286-21.942857-14.628572-21.942857-21.942857 0-51.2 14.628571-73.142857 51.2s-36.571429 65.828571-43.885714 109.714286l-7.314286 65.828571-43.885714 14.628572v-51.2l29.257143-248.685715c7.314286-58.514286 29.257143-109.714286 65.828571-153.6s80.457143-65.828571 124.342857-65.828571h29.257143l-43.885714 43.885714c-7.314286 0-21.942857-7.314286-29.257143-7.314285-58.514286 0-87.771429 43.885714-102.4 131.657142l-14.628571 175.542858z m482.742857 73.142857c7.314286 0 7.314286 7.314286 7.314285 14.628571s-7.314286 14.628571-14.628571 29.257143c-29.257143 36.571429-65.828571 58.514286-95.085714 58.514286-21.942857 0-36.571429-7.314286-51.2-21.942857s-21.942857-36.571429-21.942857-58.514286c0-43.885714 14.628571-87.771429 51.2-131.657143s65.828571-65.828571 95.085714-65.828571c21.942857 0 36.571429 14.628571 36.571428 36.571428 0 29.257143-14.628571 58.514286-43.885714 80.457143s-58.514286 43.885714-102.4 58.514286c7.314286 43.885714 21.942857 65.828571 51.2 65.828571 36.571429-7.314286 65.828571-29.257143 87.771429-65.828571z m-131.657143-43.885715h14.628571c21.942857 0 43.885714-7.314286 58.514286-21.942857s29.257143-29.257143 29.257143-51.2c0-21.942857-14.628571-36.571429-36.571429-36.571428-14.628571 0-29.257143 7.314286-43.885714 29.257143-14.628571 21.942857-21.942857 51.2-21.942857 80.457142z m226.742857 124.342858l36.571429-29.257143c14.628571 14.628571 36.571429 21.942857 58.514285 21.942857 29.257143 0 43.885714-14.628571 43.885715-36.571429 0-14.628571-14.628571-36.571429-36.571429-58.514285l-14.628571-14.628572c-21.942857-21.942857-36.571429-43.885714-36.571429-58.514286 0-21.942857 7.314286-43.885714 29.257143-58.514285s43.885714-21.942857 73.142857-21.942857c14.628571 0 29.257143 0 51.2 7.314285l-36.571429 29.257143c-14.628571-7.314286-29.257143-14.628571-51.2-14.628571-21.942857 0-29.257143 7.314286-29.257142 29.257143 0 14.628571 14.628571 29.257143 36.571428 51.2l14.628572 21.942857c29.257143 29.257143 36.571429 51.2 36.571428 65.828571 0 21.942857-14.628571 43.885714-36.571428 65.828572s-51.2 29.257143-80.457143 29.257142c-14.628571-14.628571-36.571429-21.942857-58.514286-29.257142z" fill="#333333" p-id="21591"></path></svg>