<?xml version="1.0" standalone="no"?><!DOCTYPE svg PUBLIC "-//W3C//DTD SVG 1.1//EN" "http://www.w3.org/Graphics/SVG/1.1/DTD/svg11.dtd"><svg t="1677638047500" class="icon" viewBox="0 0 1024 1024" version="1.1" xmlns="http://www.w3.org/2000/svg" p-id="136147" xmlns:xlink="http://www.w3.org/1999/xlink" width="256" height="256"><path d="M960 506.4v8.5C958.5 753 771.1 947.1 535.7 959.4c-7.8 0.4-15.8 0.6-23.7 0.6-19.4 0-38.5-1.2-57.3-3.6-23.8-3.1-47.1-8-69.6-14.6-0.8-0.2-1.7-0.5-2.5-0.8C198.2 885.5 64 714.4 64 512 64 264.6 264.6 64 512 64c128.9 0 245 54.4 326.7 141.5 70.4 75 115.3 174.3 120.7 284 0.2 4.4 0.4 8.7 0.5 13.1 0 1.2 0.1 2.5 0.1 3.8z" fill="#F7C832" p-id="136148"></path><path d="M960 506.4v8.5C958.5 753 771.1 947.1 535.7 959.4c-7.8 0.4-15.8 0.6-23.7 0.6-19.4 0-38.5-1.2-57.3-3.6-23.8-3.1-47.1-8-69.6-14.6-0.8-0.2-1.7-0.5-2.5-0.8-0.1-0.2-0.1-0.3-0.1-0.3L186.2 744.5l598.5-429.7 54-109.3c70.4 75 115.3 174.3 120.7 284 0.2 4.4 0.4 8.7 0.5 13.1 0 1.2 0.1 2.5 0.1 3.8z" fill="#F3A333" p-id="136149"></path><path d="M853.4 209.3v497.2c0 33-27 60-60 60H230.6c-33 0-60-27-60-60V209.3c0-33 27-60 60-60h562.9c32.9 0 59.9 27 59.9 60z" fill="#E8E4EF" p-id="136150"></path><path d="M853.4 209.3v497.2c0 33-27 60-60 60H230.6c-33 0-60-27-60-60V209.3c0-33 27-60 60-60h562.9c32.9 0 59.9 27 59.9 60z" fill="#5F2B88" p-id="136151"></path><path d="M853.4 209.3v497.2c0 33-27 60-60 60H512V149.3h281.5c32.9 0 59.9 27 59.9 60z" fill="#3D2652" p-id="136152"></path><path d="M813.4 209.3v497.2c0 10.8-9.2 20-20 20H230.6c-10.8 0-20-9.2-20-20V209.3c0-10.8 9.2-20 20-20h562.9c10.8 0 19.9 9.2 19.9 20z" fill="#FFFFFF" p-id="136153"></path><path d="M813.4 209.3v497.2c0 10.8-9.2 20-20 20H512V189.3h281.5c10.8 0 19.9 9.2 19.9 20z" fill="#E8E4EF" p-id="136154"></path><path d="M759.1 694.7V831c0 19.1-15.7 34.8-34.8 34.8-19.1 0-34.8-15.7-34.8-34.8V694.7c0-19.1 15.7-34.8 34.8-34.8 9.6 0 18.3 3.9 24.6 10.2 6.3 6.4 10.2 15.1 10.2 24.6z" fill="#EF4081" p-id="136155"></path><path d="M759.1 694.7V831c0 19.1-15.7 34.8-34.8 34.8V659.9c9.6 0 18.3 3.9 24.6 10.2 6.3 6.4 10.2 15.1 10.2 24.6z" fill="#E02B6C" p-id="136156"></path><path d="M909.2 538.5V769c0 13.3-15.3 20.8-25.8 12.5l-1.6-1.2c-2.2-1.8-4.5-3.5-6.8-5.2-23.4-17.5-48.6-32.1-75.1-43.5-18-7.8-36.6-14.1-55.5-19-13.2-3.4-26.6-6-40.2-7.9-16.9-2.4-34.1-3.6-51.4-3.6v-94.7c17.3 0 34.4-1.2 51.4-3.6 13.6-1.9 27-4.5 40.2-7.9 10-2.5 19.8-5.5 29.6-8.9 8.8-3 17.4-6.4 26-10.1 26.5-11.5 51.7-26 75.1-43.5 2.3-1.7 4.5-3.4 6.8-5.2l1.6-1.2c10.4-8.2 25.7-0.8 25.7 12.5z" fill="#EF4081" p-id="136157"></path><path d="M904.7 702.9l-53.5-26.5c-8.2-4-13.3-12.4-13.3-21.5s5.2-17.4 13.3-21.5l53.5-26.5c15.9-7.9 34.6 3.7 34.6 21.5v53.1c0 17.7-18.7 29.3-34.6 21.4z" fill="#BA0C52" p-id="136158"></path><path d="M744.4 594.9v117.7c-13.2-3.4-26.6-6-40.2-7.9V602.8c13.6-1.9 27-4.6 40.2-7.9z" fill="#4BB6EF" p-id="136159"></path><path d="M909.2 538.5V769c0 13.3-15.3 20.8-25.8 12.5l-1.6-1.2c-2.2-1.8-4.5-3.5-6.8-5.2-23.4-17.5-48.6-32.1-75.1-43.5V575.9c26.5-11.5 51.7-26 75.1-43.5 2.3-1.7 4.5-3.4 6.8-5.2l1.6-1.2c10.5-8.2 25.8-0.8 25.8 12.5z" fill="#E02B6C" p-id="136160"></path><path d="M909.2 538.5V769c0 13.3-15.3 20.8-25.8 12.5l-1.6-1.2c-2.2-1.8-4.5-3.5-6.8-5.2V532.4c2.3-1.7 4.5-3.4 6.8-5.2l1.6-1.2c10.5-8.2 25.8-0.8 25.8 12.5z" fill="#E8E4EF" p-id="136161"></path><path d="M768.2 248.1v132.4c0 6.2-5.1 11.3-11.3 11.3H267.1c-6.2 0-11.3-5.1-11.3-11.3V248.1c0-6.2 5.1-11.3 11.3-11.3h489.8c6.3 0 11.3 5.1 11.3 11.3z" fill="#4BB6EF" p-id="136162"></path><path d="M768.2 462.1c0 5.5-2.3 10.6-5.9 14.3-3.7 3.7-8.7 5.9-14.2 5.9H275.9c-11.1 0-20.2-9.1-20.2-20.2 0-5.5 2.3-10.6 5.9-14.3 3.7-3.7 8.7-5.9 14.2-5.9h472.1c11.3 0 20.3 9.1 20.3 20.2zM656.2 557.4c0 5.5-2.3 10.6-5.9 14.2-3.7 3.7-8.7 5.9-14.2 5.9H275.9c-11.1 0-20.2-9.1-20.2-20.2 0-5.6 2.3-10.6 5.9-14.3 3.7-3.7 8.7-5.9 14.2-5.9h360.1c11.3 0.1 20.3 9.1 20.3 20.3zM435.8 658.1H275.9c-11.1 0-20.2-9.1-20.2-20.2s9.1-20.2 20.2-20.2h159.9c11.1 0 20.2 9.1 20.2 20.2s-9.1 20.2-20.2 20.2z" fill="#E95C94" p-id="136163"></path><path d="M656.2 557.4c0 5.5-2.3 10.6-5.9 14.2-3.7 3.7-8.7 5.9-14.2 5.9H512v-40.4h124.1c11.1 0.1 20.1 9.1 20.1 20.3zM768.2 462.1c0 5.5-2.3 10.6-5.9 14.3-3.7 3.7-8.7 5.9-14.2 5.9H512v-40.4h236.1c11.1 0 20.1 9.1 20.1 20.2z" fill="#E02B6C" p-id="136164"></path><path d="M768.2 248.1v132.4c0 6.2-5.1 11.3-11.3 11.3H512v-155h244.9c6.3 0 11.3 5.1 11.3 11.3z" fill="#3892CB" p-id="136165"></path></svg>