<?xml version="1.0" standalone="no"?><!DOCTYPE svg PUBLIC "-//W3C//DTD SVG 1.1//EN" "http://www.w3.org/Graphics/SVG/1.1/DTD/svg11.dtd"><svg t="1677748453871" class="icon" viewBox="0 0 1024 1024" version="1.1" xmlns="http://www.w3.org/2000/svg" p-id="78545" xmlns:xlink="http://www.w3.org/1999/xlink" width="256" height="256"><path d="M290.7 196.8c38.3-10.8 76.1-21.5 112.2-31.7l2.2-0.6c125.5-35.4 211.4-59.4 238.8-66.6 45.5-12.1 78.7 6.9 78.7 41.9v85.4l49.7 3.3v-88.7c0-76-72.5-108.2-141.2-90C562.4 68.1 142.6 187 142.6 187l13.6 47.8c3.8-1.1 3.8-1.1 21.2-6 16.8-4.8 35.6-10.1 55.8-15.8 19.1-5.4 38.4-10.8 57.5-16.2L142.6 187l148.1 9.8z m0 0c38.3-10.8 76.1-21.5 112.2-31.7l2.2-0.6c125.5-35.4 211.4-59.4 238.8-66.6 45.5-12.1 78.7 6.9 78.7 41.9v85.4l49.7 3.3v-88.7c0-76-72.5-108.2-141.2-90C562.4 68.1 142.6 187 142.6 187l13.6 47.8c3.8-1.1 3.8-1.1 21.2-6 16.8-4.8 35.6-10.1 55.8-15.8 19.1-5.4 38.4-10.8 57.5-16.2L142.6 187l148.1 9.8z" fill="#414141" p-id="78546"></path><path d="M863.4 707.7v90.8c0 67.3-45.6 121.8-101.7 121.8H294c-56.2 0-101.7-54.5-101.7-121.9V353.2c0-67.3 45.6-121.9 101.7-121.9h467.6c56.2 0 101.7 54.7 101.7 121.9v39.7H664.5c-54.9 0-99.4 44.5-99.4 99.4v116c0 54.9 44.5 99.4 99.4 99.4h198.9z" fill="#f4ab62" p-id="78547" data-spm-anchor-id="a313x.7781069.0.i22" class=""></path><path d="M884.4 392.1v282.7l-0.2 13.7V857c0 56.6-40.2 100.6-87.2 100.6H151.7c-47 0-87.2-44-87.2-100.7V294.7c0-56.6 40.2-100.7 87.2-100.7H797c47 0 87.2 44.1 87.2 100.7v71.9l0.2 25.5z m0 0h-46.7v-63.2c0-67.5-16.7-88.5-76.6-88.5h-567c-55 0-76.6 19.1-76.6 88.5v494c0 72.3 22.1 88.5 76.6 88.5h567c62.4 0 76.6-17.6 76.6-88.4V674.7h46.7V392.1z" fill="#414141" p-id="78548" data-spm-anchor-id="a313x.7781069.0.i26"></path><path d="M639.7 442.6c-27.5 0-49.7 22.3-49.7 49.7v116c0 27.5 22.3 49.7 49.7 49.7h220.9c27.5 0 49.7-22.3 49.7-49.7v-116c0-27.5-22.3-49.7-49.7-49.7H639.7z m0-49.7h220.9c54.9 0 99.4 44.5 99.4 99.4v116c0 54.9-44.5 99.4-99.4 99.4H639.7c-54.9 0-99.4-44.5-99.4-99.4v-116c0-54.9 44.5-99.4 99.4-99.4z" fill="#414141" p-id="78549"></path><path d="M753.6 556.5m-39.4 0a39.4 39.4 0 1 0 78.8 0 39.4 39.4 0 1 0-78.8 0Z" fill="#414141" p-id="78550"></path></svg>